<svg aria-hidden="true" style="position: absolute; width: 0; height: 0; overflow: hidden;"
     version="1.1" xmlns="http://www.w3.org/2000/svg" xmlns:xlink="http://www.w3.org/1999/xlink">
    <defs>
        <symbol id="icon-magnifying-glass" viewBox="0 0 25 24">
            <path d="M11 19C15.4183 19 19 15.4183 19 11C19 6.58172 15.4183 3 11 3C6.58172 3 3 6.58172 3 11C3 15.4183 6.58172 19 11 19Z"
                  stroke="white" stroke-opacity="0.38" stroke-width="2" stroke-linecap="round"
                  stroke-linejoin="round"/>
            <path d="M21 20.9999L16.65 16.6499" stroke="white" stroke-opacity="0.38"
                  stroke-width="2" stroke-linecap="round" stroke-linejoin="round"/>
        </symbol>
        <symbol id="icon-facebook" viewBox="0 0 34 34">
            <path d="M18.9791 29.7458V18.1347H22.8962L23.4784 13.5887H18.9791V10.693C18.9791 9.38116 19.3446 8.483 21.2274 8.483H23.613V4.42991C22.4523 4.30552 21.2855 4.24545 20.1181 4.25C16.6558 4.25 14.2786 6.36366 14.2786 10.2439V13.5802H10.387V18.1262H14.2871V29.7458H18.9791Z"
                  fill="white" fill-opacity="0.78"/>
        </symbol>
        <symbol id="icon-instagram" viewBox="0 0 36 36">
            <path d="M17.9985 11.0654C16.159 11.0654 14.3948 11.7962 13.094 13.0969C11.7933 14.3977 11.0625 16.1619 11.0625 18.0014C11.0625 19.841 11.7933 21.6052 13.094 22.9059C14.3948 24.2067 16.159 24.9374 17.9985 24.9374C19.838 24.9374 21.6022 24.2067 22.903 22.9059C24.2037 21.6052 24.9345 19.841 24.9345 18.0014C24.9345 16.1619 24.2037 14.3977 22.903 13.0969C21.6022 11.7962 19.838 11.0654 17.9985 11.0654ZM17.9985 22.5059C16.8034 22.5059 15.6573 22.0312 14.8123 21.1862C13.9672 20.3411 13.4925 19.195 13.4925 17.9999C13.4925 16.8049 13.9672 15.6587 14.8123 14.8137C15.6573 13.9687 16.8034 13.4939 17.9985 13.4939C19.1936 13.4939 20.3397 13.9687 21.1847 14.8137C22.0298 15.6587 22.5045 16.8049 22.5045 17.9999C22.5045 19.195 22.0298 20.3411 21.1847 21.1862C20.3397 22.0312 19.1936 22.5059 17.9985 22.5059Z"
                  fill="white" fill-opacity="0.78"/>
            <path d="M25.209 12.4275C26.1021 12.4275 26.826 11.7035 26.826 10.8105C26.826 9.91744 26.1021 9.19348 25.209 9.19348C24.316 9.19348 23.592 9.91744 23.592 10.8105C23.592 11.7035 24.316 12.4275 25.209 12.4275Z"
                  fill="white" fill-opacity="0.78"/>
            <path d="M30.7995 9.16645C30.4522 8.26972 29.9216 7.45537 29.2415 6.77553C28.5614 6.0957 27.7468 5.56535 26.85 5.21845C25.8005 4.82448 24.6918 4.61146 23.571 4.58845C22.1265 4.52545 21.669 4.50745 18.006 4.50745C14.343 4.50745 13.8735 4.50745 12.441 4.58845C11.3211 4.61028 10.2131 4.82335 9.16499 5.21845C8.26789 5.56495 7.45314 6.09515 6.77299 6.77504C6.09285 7.45493 5.56233 8.26948 5.21549 9.16645C4.82145 10.2159 4.60891 11.3247 4.58699 12.4454C4.52249 13.8884 4.50299 14.3459 4.50299 18.0104C4.50299 21.6734 4.50299 22.1399 4.58699 23.5754C4.60949 24.6974 4.82099 25.8044 5.21549 26.8559C5.56331 27.7526 6.09433 28.5668 6.77464 29.2466C7.45495 29.9264 8.26959 30.4568 9.16649 30.8039C10.2126 31.2137 11.321 31.442 12.444 31.4789C13.8885 31.5419 14.346 31.5614 18.009 31.5614C21.672 31.5614 22.1415 31.5614 23.574 31.4789C24.6946 31.4562 25.8033 31.2437 26.853 30.8505C27.7496 30.5027 28.5639 29.9719 29.2439 29.2919C29.924 28.6119 30.4548 27.7976 30.8025 26.9009C31.197 25.851 31.4085 24.7439 31.431 23.622C31.4955 22.1789 31.515 21.7214 31.515 18.0569C31.515 14.3924 31.515 13.9274 31.431 12.4919C31.4135 11.3554 31.1999 10.2303 30.7995 9.16645ZM28.9725 23.4644C28.9628 24.3289 28.805 25.1853 28.506 25.9964C28.2807 26.5798 27.9359 27.1094 27.4936 27.5515C27.0513 27.9935 26.5214 28.338 25.938 28.5629C25.1358 28.8606 24.2885 29.0184 23.433 29.0294C22.008 29.0954 21.606 29.1119 17.952 29.1119C14.295 29.1119 13.9215 29.1119 12.4695 29.0294C11.6144 29.019 10.7675 28.8612 9.96599 28.5629C9.38052 28.3394 8.84849 27.9955 8.40433 27.5534C7.96016 27.1113 7.61374 26.5809 7.38749 25.9964C7.09266 25.194 6.93496 24.3477 6.92099 23.4929C6.85649 22.0679 6.84149 21.6659 6.84149 18.0119C6.84149 14.3564 6.84149 13.9829 6.92099 12.5294C6.93069 11.6655 7.08847 10.8096 7.38749 9.99895C7.84499 8.81545 8.78249 7.88395 9.96599 7.43095C10.7679 7.13416 11.6145 6.97639 12.4695 6.96445C13.896 6.89995 14.2965 6.88195 17.952 6.88195C21.6075 6.88195 21.9825 6.88195 23.433 6.96445C24.2886 6.97474 25.136 7.13255 25.938 7.43095C26.5214 7.65636 27.0512 8.00125 27.4934 8.44349C27.9357 8.88573 28.2806 9.41555 28.506 9.99895C28.8008 10.8014 28.9585 11.6477 28.9725 12.5024C29.037 13.9289 29.0535 14.3294 29.0535 17.9849C29.0535 21.6389 29.0535 22.0319 28.989 23.466H28.9725V23.4644Z"
                  fill="white" fill-opacity="0.78"/>
        </symbol>
        <symbol id="icon-twitter" viewBox="0 0 36 36">
            <path d="M29.4495 11.9956C29.469 12.2581 29.469 12.5191 29.469 12.7801C29.469 20.7676 23.3895 29.9716 12.279 29.9716C8.856 29.9716 5.676 28.9801 3 27.2581C3.486 27.3136 3.954 27.3331 4.4595 27.3331C7.17899 27.3396 9.82147 26.4303 11.961 24.7516C10.7001 24.7287 9.47786 24.3128 8.46486 23.5617C7.45185 22.8106 6.69868 21.7619 6.3105 20.5621C6.684 20.6176 7.059 20.6551 7.452 20.6551C7.9935 20.6551 8.538 20.5801 9.0435 20.4496C7.67514 20.1733 6.44471 19.4316 5.56143 18.3506C4.67815 17.2696 4.19654 15.916 4.1985 14.5201V14.4451C5.004 14.8936 5.9385 15.1741 6.9285 15.2116C6.09913 14.6604 5.41908 13.9126 4.94901 13.0348C4.47894 12.1569 4.23347 11.1763 4.2345 10.1806C4.2345 9.05857 4.533 8.02957 5.0565 7.13257C6.57471 9.0001 8.46825 10.5279 10.6145 11.6171C12.7608 12.7062 15.1118 13.3324 17.5155 13.4551C17.4225 13.0051 17.3655 12.5386 17.3655 12.0706C17.3651 11.277 17.5211 10.4912 17.8246 9.75793C18.1281 9.0247 18.5732 8.35848 19.1343 7.79735C19.6954 7.23622 20.3616 6.79118 21.0949 6.48768C21.8281 6.18418 22.6139 6.02817 23.4075 6.02857C25.1475 6.02857 26.718 6.75756 27.822 7.93657C29.1747 7.67499 30.4718 7.1812 31.656 6.47706C31.2051 7.87329 30.2606 9.05722 28.9995 9.80707C30.1992 9.67023 31.3717 9.35474 32.478 8.87107C31.6517 10.0757 30.6278 11.1321 29.4495 11.9956Z" fill="white" fill-opacity="0.78"/>
        </symbol>
        <symbol id="illustration" viewBox="0 0 58 58">
            <path opacity="0.4" d="M335.43 255.344C328.204 251.178 323.019 251.093 319.874 255.004C316.644 258.915 315.114 265.546 315.114 274.812V324.969C315.114 334.49 314.264 342.396 312.478 348.687C310.693 355.233 307.718 359.824 303.638 362.544C299.643 365.35 294.202 366.03 287.317 364.755C280.602 363.564 272.186 359.994 262.155 354.213L257.395 351.408V311.877L263.43 315.363C270.656 319.528 275.416 320.038 277.796 317.063C280.346 314.087 281.622 307.967 281.622 298.7V254.494C281.622 242.932 282.727 233.836 285.022 227.205C287.232 220.489 291.737 216.238 298.453 214.368C291.737 204.762 287.232 195.24 285.022 185.974C282.812 176.708 281.707 166.336 281.707 154.775V110.568C281.707 101.302 280.432 93.651 277.881 87.7851C275.501 82.0043 270.656 76.9886 263.515 72.823L257.48 69.3375V29.8069L262.24 32.6123C272.271 38.3931 280.687 44.599 287.402 51.1449C294.287 57.7759 299.728 64.7469 303.723 72.2279C307.888 79.709 310.863 87.7001 312.563 96.2864C314.349 104.618 315.199 113.544 315.199 123.065V173.222C315.199 182.489 316.814 190.99 319.959 198.556C323.189 206.122 328.374 212.073 335.515 216.153L335.43 255.344Z" fill="url(#paint0_linear_1_421)"/>
            <path opacity="0.4" d="M153.349 110.058C160.574 114.224 165.759 114.309 168.905 110.398C172.135 106.488 173.665 99.8568 173.665 90.5905V40.4334C173.665 30.912 174.515 23.0059 176.3 16.715C178.085 10.169 180.975 5.57839 184.971 2.77299C189.136 0.0526013 194.576 -0.627496 201.291 0.562674C208.177 1.83786 216.677 5.40837 226.708 11.2742L231.468 14.0796V53.6102L225.433 50.1247C218.207 45.9591 213.362 45.3641 210.812 48.3395C208.432 51.3999 207.242 57.5208 207.242 66.8721V111.078C207.242 122.555 206.137 131.736 203.842 138.367C201.631 145.083 197.126 149.334 190.411 151.204C197.126 160.811 201.631 170.332 203.842 179.598C206.052 188.865 207.157 199.236 207.157 210.798V255.004C207.157 264.27 208.347 271.836 210.727 277.702C213.277 283.568 218.122 288.669 225.348 292.749L231.383 296.235V335.766L226.623 332.96C216.592 327.179 208.092 320.888 201.206 314.342C194.491 307.797 189.051 300.826 184.885 293.259C180.89 285.863 178 277.872 176.3 269.371C174.515 261.04 173.665 252.114 173.665 242.592V192.435C173.665 183.169 172.05 174.668 168.905 167.101C165.674 159.535 160.489 153.585 153.349 149.504V110.058Z" fill="url(#paint1_linear_1_421)"/>
            <path opacity="0.15" d="M359.996 10.9343L539.442 114.564L539.357 544.81L359.911 441.266L359.996 10.9343Z" fill="url(#paint2_linear_1_421)"/>
            <path d="M326.249 67.2971L469.058 149.674V189.205L326.249 106.828V67.2971Z" fill="#587298"/>
            <path opacity="0.2" d="M383.373 250.329L518.701 328.455V448.067L383.373 369.941V250.329Z" fill="url(#paint3_linear_1_421)"/>
            <path opacity="0.15" d="M382.012 158.6L519.38 237.916V251.433L382.012 172.117V158.6Z" fill="white"/>
            <path opacity="0.15" d="M382.012 185.804L500.764 254.324V267.841L382.012 199.321V185.804Z" fill="white"/>
            <path opacity="0.15" d="M382.012 212.668L482.828 270.816V284.333L382.012 226.185V212.668Z" fill="white"/>
            <path opacity="0.2" d="M359.996 10.9343L539.442 114.564V172.202L359.911 68.6576L359.996 10.9343Z" fill="url(#paint4_linear_1_421)"/>
            <path opacity="0.2" d="M404.794 66.0221C404.794 74.7784 399.693 78.859 393.403 75.2034C387.113 71.5479 382.012 61.6015 382.012 52.8453C382.012 44.089 387.113 40.0084 393.403 43.6639C399.693 47.3195 404.794 57.3509 404.794 66.0221Z" fill="white"/>
            <path opacity="0.15" d="M36.6372 142.703L589 461.499L588.915 892L36.5522 573.205L36.6372 142.703Z" fill="url(#paint5_linear_1_421)"/>
            <path d="M0 248.798L142.723 331.175V370.705L0 288.414V248.798Z" fill="#EA8C4F"/>
            <path opacity="0.15" d="M73.8689 357.444L390.768 540.39V553.907L73.8689 370.961V357.444Z" fill="white"/>
            <path opacity="0.15" d="M73.8689 384.648L347.245 542.43V555.947L73.8689 398.165V384.648Z" fill="white"/>
            <path opacity="0.15" d="M73.8689 411.596L306.528 545.915V559.432L73.8689 425.113V411.596Z" fill="white"/>
            <path opacity="0.2" d="M22.0158 425.029L253.995 558.923V678.535L22.0158 544.556V425.029Z" fill="url(#paint6_linear_1_421)"/>
            <path opacity="0.15" d="M45.3922 469.15L229.683 575.5V589.017L45.3922 482.667V469.15Z" fill="white"/>
            <path opacity="0.15" d="M45.3922 496.354L192.961 581.536V595.053L45.3922 509.785V496.354Z" fill="white"/>
            <path opacity="0.2" d="M36.6368 142.703L588.235 461.159V519.477L36.6368 201.106V142.703Z" fill="url(#paint7_linear_1_421)"/>
            <path opacity="0.2" d="M96.7358 206.547C96.7358 215.304 91.6355 219.384 85.3451 215.729C79.0547 212.073 73.9544 202.127 73.9544 193.37C73.9544 184.614 79.0547 180.534 85.3451 184.189C91.6355 187.845 96.7358 197.876 96.7358 206.547Z" fill="white"/>
            <defs>
                <linearGradient id="paint0_linear_1_421" x1="384.36" y1="17.8759" x2="245.12" y2="259.239" gradientUnits="userSpaceOnUse">
                    <stop stop-color="#424C57"/>
                    <stop offset="0.903" stop-color="white" stop-opacity="0"/>
                </linearGradient>
                <linearGradient id="paint1_linear_1_421" x1="303.984" y1="1.51234" x2="164.727" y2="242.845" gradientUnits="userSpaceOnUse">
                    <stop stop-color="#414B56"/>
                    <stop offset="0.903" stop-color="white" stop-opacity="0"/>
                </linearGradient>
                <linearGradient id="paint2_linear_1_421" x1="542.816" y1="116.519" x2="371.208" y2="413.807" gradientUnits="userSpaceOnUse">
                    <stop stop-color="white"/>
                    <stop offset="1" stop-color="white" stop-opacity="0"/>
                </linearGradient>
                <linearGradient id="paint3_linear_1_421" x1="476.95" y1="304.285" x2="429.254" y2="386.909" gradientUnits="userSpaceOnUse">
                    <stop stop-color="white"/>
                    <stop offset="1" stop-color="white" stop-opacity="0"/>
                </linearGradient>
                <linearGradient id="paint4_linear_1_421" x1="421.521" y1="11.8282" x2="476.243" y2="166.739" gradientUnits="userSpaceOnUse">
                    <stop stop-color="#424C58"/>
                    <stop offset="1" stop-color="white" stop-opacity="0"/>
                </linearGradient>
                <linearGradient id="paint5_linear_1_421" x1="405.97" y1="355.856" x2="315.072" y2="513.362" gradientUnits="userSpaceOnUse">
                    <stop stop-color="white"/>
                    <stop offset="1" stop-color="white" stop-opacity="0"/>
                </linearGradient>
                <linearGradient id="paint6_linear_1_421" x1="163.887" y1="506.882" x2="116.192" y2="589.507" gradientUnits="userSpaceOnUse">
                    <stop stop-color="#434D58"/>
                    <stop offset="1" stop-color="white" stop-opacity="0"/>
                </linearGradient>
                <linearGradient id="paint7_linear_1_421" x1="173.501" y1="95.7139" x2="382.973" y2="450.519" gradientUnits="userSpaceOnUse">
                    <stop stop-color="#546F94"/>
                    <stop offset="1" stop-color="white" stop-opacity="0"/>
                </linearGradient>
            </defs>
        </symbol>
    </defs>
</svg>
