<svg aria-hidden="true" style="position: absolute; width: 0; height: 0; overflow: hidden;"
     version="1.1" xmlns="http://www.w3.org/2000/svg" xmlns:xlink="http://www.w3.org/1999/xlink">
    <defs>
        <symbol id="icon-magnifying-glass" viewBox="0 0 25 24">
            <path d="M11 19C15.4183 19 19 15.4183 19 11C19 6.58172 15.4183 3 11 3C6.58172 3 3 6.58172 3 11C3 15.4183 6.58172 19 11 19Z"
                  stroke="white" stroke-opacity="0.38" stroke-width="2" stroke-linecap="round"
                  stroke-linejoin="round"/>
            <path d="M21 20.9999L16.65 16.6499" stroke="white" stroke-opacity="0.38"
                  stroke-width="2" stroke-linecap="round" stroke-linejoin="round"/>
        </symbol>
        <symbol id="icon-facebook" viewBox="0 0 34 34">
            <path d="M18.9791 29.7458V18.1347H22.8962L23.4784 13.5887H18.9791V10.693C18.9791 9.38116 19.3446 8.483 21.2274 8.483H23.613V4.42991C22.4523 4.30552 21.2855 4.24545 20.1181 4.25C16.6558 4.25 14.2786 6.36366 14.2786 10.2439V13.5802H10.387V18.1262H14.2871V29.7458H18.9791Z"
                  fill="white" fill-opacity="0.78"/>
        </symbol>
        <symbol id="icon-instagram" viewBox="0 0 36 36">
            <path d="M17.9985 11.0654C16.159 11.0654 14.3948 11.7962 13.094 13.0969C11.7933 14.3977 11.0625 16.1619 11.0625 18.0014C11.0625 19.841 11.7933 21.6052 13.094 22.9059C14.3948 24.2067 16.159 24.9374 17.9985 24.9374C19.838 24.9374 21.6022 24.2067 22.903 22.9059C24.2037 21.6052 24.9345 19.841 24.9345 18.0014C24.9345 16.1619 24.2037 14.3977 22.903 13.0969C21.6022 11.7962 19.838 11.0654 17.9985 11.0654ZM17.9985 22.5059C16.8034 22.5059 15.6573 22.0312 14.8123 21.1862C13.9672 20.3411 13.4925 19.195 13.4925 17.9999C13.4925 16.8049 13.9672 15.6587 14.8123 14.8137C15.6573 13.9687 16.8034 13.4939 17.9985 13.4939C19.1936 13.4939 20.3397 13.9687 21.1847 14.8137C22.0298 15.6587 22.5045 16.8049 22.5045 17.9999C22.5045 19.195 22.0298 20.3411 21.1847 21.1862C20.3397 22.0312 19.1936 22.5059 17.9985 22.5059Z"
                  fill="white" fill-opacity="0.78"/>
            <path d="M25.209 12.4275C26.1021 12.4275 26.826 11.7035 26.826 10.8105C26.826 9.91744 26.1021 9.19348 25.209 9.19348C24.316 9.19348 23.592 9.91744 23.592 10.8105C23.592 11.7035 24.316 12.4275 25.209 12.4275Z"
                  fill="white" fill-opacity="0.78"/>
            <path d="M30.7995 9.16645C30.4522 8.26972 29.9216 7.45537 29.2415 6.77553C28.5614 6.0957 27.7468 5.56535 26.85 5.21845C25.8005 4.82448 24.6918 4.61146 23.571 4.58845C22.1265 4.52545 21.669 4.50745 18.006 4.50745C14.343 4.50745 13.8735 4.50745 12.441 4.58845C11.3211 4.61028 10.2131 4.82335 9.16499 5.21845C8.26789 5.56495 7.45314 6.09515 6.77299 6.77504C6.09285 7.45493 5.56233 8.26948 5.21549 9.16645C4.82145 10.2159 4.60891 11.3247 4.58699 12.4454C4.52249 13.8884 4.50299 14.3459 4.50299 18.0104C4.50299 21.6734 4.50299 22.1399 4.58699 23.5754C4.60949 24.6974 4.82099 25.8044 5.21549 26.8559C5.56331 27.7526 6.09433 28.5668 6.77464 29.2466C7.45495 29.9264 8.26959 30.4568 9.16649 30.8039C10.2126 31.2137 11.321 31.442 12.444 31.4789C13.8885 31.5419 14.346 31.5614 18.009 31.5614C21.672 31.5614 22.1415 31.5614 23.574 31.4789C24.6946 31.4562 25.8033 31.2437 26.853 30.8505C27.7496 30.5027 28.5639 29.9719 29.2439 29.2919C29.924 28.6119 30.4548 27.7976 30.8025 26.9009C31.197 25.851 31.4085 24.7439 31.431 23.622C31.4955 22.1789 31.515 21.7214 31.515 18.0569C31.515 14.3924 31.515 13.9274 31.431 12.4919C31.4135 11.3554 31.1999 10.2303 30.7995 9.16645ZM28.9725 23.4644C28.9628 24.3289 28.805 25.1853 28.506 25.9964C28.2807 26.5798 27.9359 27.1094 27.4936 27.5515C27.0513 27.9935 26.5214 28.338 25.938 28.5629C25.1358 28.8606 24.2885 29.0184 23.433 29.0294C22.008 29.0954 21.606 29.1119 17.952 29.1119C14.295 29.1119 13.9215 29.1119 12.4695 29.0294C11.6144 29.019 10.7675 28.8612 9.96599 28.5629C9.38052 28.3394 8.84849 27.9955 8.40433 27.5534C7.96016 27.1113 7.61374 26.5809 7.38749 25.9964C7.09266 25.194 6.93496 24.3477 6.92099 23.4929C6.85649 22.0679 6.84149 21.6659 6.84149 18.0119C6.84149 14.3564 6.84149 13.9829 6.92099 12.5294C6.93069 11.6655 7.08847 10.8096 7.38749 9.99895C7.84499 8.81545 8.78249 7.88395 9.96599 7.43095C10.7679 7.13416 11.6145 6.97639 12.4695 6.96445C13.896 6.89995 14.2965 6.88195 17.952 6.88195C21.6075 6.88195 21.9825 6.88195 23.433 6.96445C24.2886 6.97474 25.136 7.13255 25.938 7.43095C26.5214 7.65636 27.0512 8.00125 27.4934 8.44349C27.9357 8.88573 28.2806 9.41555 28.506 9.99895C28.8008 10.8014 28.9585 11.6477 28.9725 12.5024C29.037 13.9289 29.0535 14.3294 29.0535 17.9849C29.0535 21.6389 29.0535 22.0319 28.989 23.466H28.9725V23.4644Z"
                  fill="white" fill-opacity="0.78"/>
        </symbol>
        <symbol id="icon-twitter" viewBox="0 0 36 36">
            <path d="M29.4495 11.9956C29.469 12.2581 29.469 12.5191 29.469 12.7801C29.469 20.7676 23.3895 29.9716 12.279 29.9716C8.856 29.9716 5.676 28.9801 3 27.2581C3.486 27.3136 3.954 27.3331 4.4595 27.3331C7.17899 27.3396 9.82147 26.4303 11.961 24.7516C10.7001 24.7287 9.47786 24.3128 8.46486 23.5617C7.45185 22.8106 6.69868 21.7619 6.3105 20.5621C6.684 20.6176 7.059 20.6551 7.452 20.6551C7.9935 20.6551 8.538 20.5801 9.0435 20.4496C7.67514 20.1733 6.44471 19.4316 5.56143 18.3506C4.67815 17.2696 4.19654 15.916 4.1985 14.5201V14.4451C5.004 14.8936 5.9385 15.1741 6.9285 15.2116C6.09913 14.6604 5.41908 13.9126 4.94901 13.0348C4.47894 12.1569 4.23347 11.1763 4.2345 10.1806C4.2345 9.05857 4.533 8.02957 5.0565 7.13257C6.57471 9.0001 8.46825 10.5279 10.6145 11.6171C12.7608 12.7062 15.1118 13.3324 17.5155 13.4551C17.4225 13.0051 17.3655 12.5386 17.3655 12.0706C17.3651 11.277 17.5211 10.4912 17.8246 9.75793C18.1281 9.0247 18.5732 8.35848 19.1343 7.79735C19.6954 7.23622 20.3616 6.79118 21.0949 6.48768C21.8281 6.18418 22.6139 6.02817 23.4075 6.02857C25.1475 6.02857 26.718 6.75756 27.822 7.93657C29.1747 7.67499 30.4718 7.1812 31.656 6.47706C31.2051 7.87329 30.2606 9.05722 28.9995 9.80707C30.1992 9.67023 31.3717 9.35474 32.478 8.87107C31.6517 10.0757 30.6278 11.1321 29.4495 11.9956Z" fill="white" fill-opacity="0.78"/>
        </symbol>
        <symbol id="icon-figma" viewBox="0 0 44 64">
            <path d="M32.6667 42.6667C38.5577 42.6667 43.3333 37.8911 43.3333 32C43.3333 26.109 38.5577 21.3334 32.6667 21.3334C26.7756 21.3334 22 26.109 22 32C22 37.8911 26.7756 42.6667 32.6667 42.6667Z" fill="#19BCFE"/>
            <path fill-rule="evenodd" clip-rule="evenodd" d="M11.3334 64C14.1624 64 16.8755 62.8761 18.8759 60.8758C20.8763 58.8754 22.0001 56.1623 22.0001 53.3333V42.6666H11.3334C8.50444 42.6666 5.79133 43.7904 3.79094 45.7908C1.79055 47.7912 0.666748 50.5043 0.666748 53.3333C0.666748 56.1623 1.79055 58.8754 3.79094 60.8758C5.79133 62.8761 8.50444 64 11.3334 64Z" fill="#09CF83"/>
            <path fill-rule="evenodd" clip-rule="evenodd" d="M11.3334 42.6667H22.0001V21.3334H11.3334C8.50444 21.3334 5.79133 22.4572 3.79094 24.4576C1.79055 26.458 0.666748 29.1711 0.666748 32C0.666748 34.829 1.79055 37.5421 3.79094 39.5425C5.79133 41.5429 8.50444 42.6667 11.3334 42.6667Z" fill="#A259FF"/>
            <path fill-rule="evenodd" clip-rule="evenodd" d="M11.3334 21.3333H22.0001V0H11.3334C8.50444 0 5.79133 1.12381 3.79094 3.12419C1.79055 5.12458 0.666748 7.83769 0.666748 10.6667C0.666748 13.4956 1.79055 16.2088 3.79094 18.2091C5.79133 20.2095 8.50444 21.3333 11.3334 21.3333Z" fill="#F24E1E"/>
            <path fill-rule="evenodd" clip-rule="evenodd" d="M32.6667 21.3333H22V0H32.6667C35.4956 0 38.2087 1.12381 40.2091 3.12419C42.2095 5.12458 43.3333 7.83769 43.3333 10.6667C43.3333 13.4956 42.2095 16.2088 40.2091 18.2091C38.2087 20.2095 35.4956 21.3333 32.6667 21.3333Z" fill="#FF7262"/>
        </symbol>
        <symbol id="icon-heart">
            <path d="M18.8334 0.25C16.3834 0.25 14.225 1.475 13 3.4C11.775 1.475 9.61669 0.25 7.16669 0.25C3.31669 0.25 0.166687 3.4 0.166687 7.25C0.166687 14.1917 13 21.25 13 21.25C13 21.25 25.8334 14.25 25.8334 7.25C25.8334 3.4 22.6834 0.25 18.8334 0.25Z" fill="white" fill-opacity="0.38"/>
        </symbol>
        <symbol id="icon-folder">
            <path d="M15.5 12.25H14.25V11C14.25 10.6685 14.1183 10.3505 13.8839 10.1161C13.6495 9.8817 13.3315 9.75 13 9.75C12.6685 9.75 12.3505 9.8817 12.1161 10.1161C11.8817 10.3505 11.75 10.6685 11.75 11V12.25H10.5C10.1685 12.25 9.85054 12.3817 9.61612 12.6161C9.3817 12.8505 9.25 13.1685 9.25 13.5C9.25 13.8315 9.3817 14.1495 9.61612 14.3839C9.85054 14.6183 10.1685 14.75 10.5 14.75H11.75V16C11.75 16.3315 11.8817 16.6495 12.1161 16.8839C12.3505 17.1183 12.6685 17.25 13 17.25C13.3315 17.25 13.6495 17.1183 13.8839 16.8839C14.1183 16.6495 14.25 16.3315 14.25 16V14.75H15.5C15.8315 14.75 16.1495 14.6183 16.3839 14.3839C16.6183 14.1495 16.75 13.8315 16.75 13.5C16.75 13.1685 16.6183 12.8505 16.3839 12.6161C16.1495 12.3817 15.8315 12.25 15.5 12.25Z" fill="white" fill-opacity="0.38"/>
            <path d="M22.375 4.81249H13.625L10.3375 0.837489C10.2212 0.694097 10.0745 0.578254 9.90812 0.498286C9.7417 0.418318 9.55963 0.37621 9.375 0.374989H3.625C2.80826 0.364962 2.02083 0.678982 1.43512 1.24829C0.849416 1.8176 0.513166 2.59579 0.5 3.41249V18.5875C0.513166 19.4042 0.849416 20.1824 1.43512 20.7517C2.02083 21.321 2.80826 21.635 3.625 21.625H22.375C23.1917 21.635 23.9792 21.321 24.5649 20.7517C25.1506 20.1824 25.4868 19.4042 25.5 18.5875V7.84999C25.4868 7.03329 25.1506 6.2551 24.5649 5.68579C23.9792 5.11648 23.1917 4.80246 22.375 4.81249ZM23 18.5625C22.9953 18.6392 22.9753 18.7142 22.9411 18.783C22.9069 18.8518 22.8593 18.9131 22.801 18.9632C22.7427 19.0133 22.675 19.0512 22.6019 19.0747C22.5287 19.0982 22.4515 19.1068 22.375 19.1H3.625C3.54846 19.1068 3.47132 19.0982 3.39815 19.0747C3.32498 19.0512 3.25726 19.0133 3.199 18.9632C3.14073 18.9131 3.0931 18.8518 3.05892 18.783C3.02474 18.7142 3.00471 18.6392 3 18.5625V3.41249C3.00471 3.33578 3.02474 3.2608 3.05892 3.19197C3.0931 3.12315 3.14073 3.06187 3.199 3.01176C3.25726 2.96165 3.32498 2.92373 3.39815 2.90024C3.47132 2.87675 3.54846 2.86816 3.625 2.87499H8.7875L12.0375 6.84999C12.1538 6.99338 12.3005 7.10922 12.4669 7.18919C12.6333 7.26916 12.8154 7.31127 13 7.31249H22.375C22.4515 7.30566 22.5287 7.31425 22.6019 7.33774C22.675 7.36123 22.7427 7.39915 22.801 7.44926C22.8593 7.49937 22.9069 7.56065 22.9411 7.62948C22.9753 7.6983 22.9953 7.77328 23 7.84999V18.5625Z" fill="white" fill-opacity="0.38"/>
        </symbol>
        <symbol id="icon-sketch">
            <path d="M32 0L13.9637 1.87248L0 20.2781L32 56.867L64 20.2779L50.0365 1.87248L32 0Z" fill="#FDB300"/>
            <path d="M0 20.2782L32 56.8671L12.9615 20.2782H0Z" fill="#EB6C00"/>
            <path d="M51.0382 20.2782L32 56.8671L64 20.2782H51.0382Z" fill="#EB6C00"/>
            <path d="M12.9617 20.2782L32.0002 56.8671L51.0387 20.2782H12.9617Z" fill="#FDAD00"/>
            <path d="M13.9636 1.87248L12.9611 20.2781L31.9998 0L13.9636 1.87248Z" fill="#FDD231"/>
            <path d="M51.0382 20.2781L50.0363 1.87248L32 0L51.0382 20.2781Z" fill="#FDD231"/>
            <path d="M51.0383 20.2781H63.9998L50.0363 1.87244L51.0383 20.2781Z" fill="#FDAD00"/>
            <path d="M0 20.2781H12.9615L13.9637 1.87244L0 20.2781Z" fill="#FDAD00"/>
            <path d="M32.0002 0L12.9617 20.2779H51.0387L32.0002 0Z" fill="#FEEEB7"/>
        </symbol>
    </defs>
</svg>
